# xmcd
#
# Track frame offsets: 
#        182
#        51180
#        83457
#        99415
#        140885
#        165285
#        194055
#        230870
#        263817
#        318422
#
# Disc length: 4386 seconds
#
# Revision: 3
# Processed by: cddbd v1.5.1PL2 Copyright (c) Steve Scherf et al.
# Submitted via: ExactAudioCopy v0.95b3
#
DISCID=8811200a
DTITLE=Betty Carter - Feed the Fire
DYEAR=1994
DGENRE=Bop
TTITLE0=Feed the Fire
TTITLE1=Love Notes
TTITLE2=Sometimes I'm Happy
TTITLE3=Lover Man
TTITLE4=I'm All Smiles
TTITLE5=If I Should Lose You
TTITLE6=All or Nothing at All
TTITLE7=What Is This Tune?
TTITLE8=Day Dream
TTITLE9=B's Blues
EXTD=Betty Carter: vocals\nGeri Allen: piano\nDave Holland: bass\nJack
EXTD=DeJohnette: drums\nRecorded live at Royal Festival Hall, London 
EXTD=UK, 1993-10-30.\nCD: Verve 314 523 600-2 (1994).
EXTT0=
EXTT1=
EXTT2=
EXTT3=
EXTT4=
EXTT5=
EXTT6=
EXTT7=
EXTT8=
EXTT9=
PLAYORDER=
